<mxfile host="app.diagrams.net" agent="Mozilla/5.0 (Windows NT 10.0; Win64; x64) AppleWebKit/537.36 (KHTML, like Gecko) Chrome/130.0.0.0 YaBrowser/24.12.0.0 Safari/537.36" version="25.0.3">
  <diagram name="Страница — 1" id="4Kg0Tf7sulIaJiSPko5-">
    <mxGraphModel dx="1290" dy="567" grid="1" gridSize="10" guides="1" tooltips="1" connect="1" arrows="1" fold="1" page="1" pageScale="1" pageWidth="827" pageHeight="1169" math="0" shadow="0">
      <root>
        <mxCell id="0" />
        <mxCell id="1" parent="0" />
        <mxCell id="95z4vijOnVk0I-HdJjaz-1" style="edgeStyle=orthogonalEdgeStyle;rounded=0;orthogonalLoop=1;jettySize=auto;html=1;" parent="1" source="95z4vijOnVk0I-HdJjaz-2" target="95z4vijOnVk0I-HdJjaz-4" edge="1">
          <mxGeometry relative="1" as="geometry" />
        </mxCell>
        <mxCell id="95z4vijOnVk0I-HdJjaz-2" value="Начало" style="ellipse;whiteSpace=wrap;html=1;" parent="1" vertex="1">
          <mxGeometry x="100" y="60" width="140" height="50" as="geometry" />
        </mxCell>
        <mxCell id="95z4vijOnVk0I-HdJjaz-3" style="edgeStyle=orthogonalEdgeStyle;rounded=0;orthogonalLoop=1;jettySize=auto;html=1;" parent="1" source="95z4vijOnVk0I-HdJjaz-4" target="95z4vijOnVk0I-HdJjaz-5" edge="1">
          <mxGeometry relative="1" as="geometry" />
        </mxCell>
        <mxCell id="95z4vijOnVk0I-HdJjaz-4" value="Ввод n и матрицы a" style="shape=parallelogram;perimeter=parallelogramPerimeter;whiteSpace=wrap;html=1;fixedSize=1;" parent="1" vertex="1">
          <mxGeometry x="95" y="130" width="150" height="50" as="geometry" />
        </mxCell>
        <mxCell id="95z4vijOnVk0I-HdJjaz-12" style="edgeStyle=orthogonalEdgeStyle;rounded=0;orthogonalLoop=1;jettySize=auto;html=1;" parent="1" source="95z4vijOnVk0I-HdJjaz-5" target="95z4vijOnVk0I-HdJjaz-11" edge="1">
          <mxGeometry relative="1" as="geometry" />
        </mxCell>
        <mxCell id="95z4vijOnVk0I-HdJjaz-5" value="s := 0;&lt;div&gt;k := 0&lt;/div&gt;" style="rounded=0;whiteSpace=wrap;html=1;align=center;" parent="1" vertex="1">
          <mxGeometry x="105" y="200" width="130" height="50" as="geometry" />
        </mxCell>
        <mxCell id="95z4vijOnVk0I-HdJjaz-6" value="Конец" style="ellipse;whiteSpace=wrap;html=1;" parent="1" vertex="1">
          <mxGeometry x="100" y="1213" width="140" height="50" as="geometry" />
        </mxCell>
        <mxCell id="IHezsS5oB59YefZTbnLG-3" style="edgeStyle=orthogonalEdgeStyle;rounded=0;orthogonalLoop=1;jettySize=auto;html=1;entryX=0.5;entryY=0;entryDx=0;entryDy=0;" parent="1" source="95z4vijOnVk0I-HdJjaz-7" target="IHezsS5oB59YefZTbnLG-1" edge="1">
          <mxGeometry relative="1" as="geometry" />
        </mxCell>
        <mxCell id="95z4vijOnVk0I-HdJjaz-7" value="Цикл 1&lt;div&gt;i &amp;gt; n&lt;/div&gt;" style="shape=loopLimit;whiteSpace=wrap;html=1;" parent="1" vertex="1">
          <mxGeometry x="105" y="343" width="130" height="50" as="geometry" />
        </mxCell>
        <mxCell id="95z4vijOnVk0I-HdJjaz-24" style="edgeStyle=orthogonalEdgeStyle;rounded=0;orthogonalLoop=1;jettySize=auto;html=1;" parent="1" source="95z4vijOnVk0I-HdJjaz-8" target="95z4vijOnVk0I-HdJjaz-23" edge="1">
          <mxGeometry relative="1" as="geometry" />
        </mxCell>
        <mxCell id="95z4vijOnVk0I-HdJjaz-8" value="Цикл 2" style="shape=loopLimit;whiteSpace=wrap;html=1;direction=west;" parent="1" vertex="1">
          <mxGeometry x="105" y="773" width="130" height="50" as="geometry" />
        </mxCell>
        <mxCell id="IHezsS5oB59YefZTbnLG-2" style="edgeStyle=orthogonalEdgeStyle;rounded=0;orthogonalLoop=1;jettySize=auto;html=1;" parent="1" source="95z4vijOnVk0I-HdJjaz-11" target="95z4vijOnVk0I-HdJjaz-7" edge="1">
          <mxGeometry relative="1" as="geometry" />
        </mxCell>
        <mxCell id="95z4vijOnVk0I-HdJjaz-11" value="i := 1;" style="rounded=0;whiteSpace=wrap;html=1;align=center;" parent="1" vertex="1">
          <mxGeometry x="105" y="270" width="130" height="50" as="geometry" />
        </mxCell>
        <mxCell id="95z4vijOnVk0I-HdJjaz-17" style="edgeStyle=orthogonalEdgeStyle;rounded=0;orthogonalLoop=1;jettySize=auto;html=1;" parent="1" source="95z4vijOnVk0I-HdJjaz-14" target="95z4vijOnVk0I-HdJjaz-16" edge="1">
          <mxGeometry relative="1" as="geometry" />
        </mxCell>
        <mxCell id="95z4vijOnVk0I-HdJjaz-14" value="Цикл 2&lt;div&gt;j &amp;gt; n&lt;/div&gt;" style="shape=loopLimit;whiteSpace=wrap;html=1;" parent="1" vertex="1">
          <mxGeometry x="105" y="478" width="130" height="50" as="geometry" />
        </mxCell>
        <mxCell id="95z4vijOnVk0I-HdJjaz-19" style="edgeStyle=orthogonalEdgeStyle;rounded=0;orthogonalLoop=1;jettySize=auto;html=1;" parent="1" source="95z4vijOnVk0I-HdJjaz-16" target="95z4vijOnVk0I-HdJjaz-18" edge="1">
          <mxGeometry relative="1" as="geometry" />
        </mxCell>
        <mxCell id="95z4vijOnVk0I-HdJjaz-22" style="edgeStyle=orthogonalEdgeStyle;rounded=0;orthogonalLoop=1;jettySize=auto;html=1;" parent="1" source="95z4vijOnVk0I-HdJjaz-16" edge="1">
          <mxGeometry relative="1" as="geometry">
            <mxPoint x="170" y="688" as="targetPoint" />
            <Array as="points">
              <mxPoint x="250" y="578" />
              <mxPoint x="250" y="688" />
            </Array>
          </mxGeometry>
        </mxCell>
        <mxCell id="95z4vijOnVk0I-HdJjaz-16" value="a[ i, j ] = 0" style="rhombus;whiteSpace=wrap;html=1;" parent="1" vertex="1">
          <mxGeometry x="103.75" y="548" width="132.5" height="60" as="geometry" />
        </mxCell>
        <mxCell id="IHezsS5oB59YefZTbnLG-7" style="edgeStyle=orthogonalEdgeStyle;rounded=0;orthogonalLoop=1;jettySize=auto;html=1;entryX=0.5;entryY=0;entryDx=0;entryDy=0;" parent="1" source="95z4vijOnVk0I-HdJjaz-18" target="IHezsS5oB59YefZTbnLG-5" edge="1">
          <mxGeometry relative="1" as="geometry" />
        </mxCell>
        <mxCell id="95z4vijOnVk0I-HdJjaz-18" value="k += 1" style="rounded=0;whiteSpace=wrap;html=1;align=center;" parent="1" vertex="1">
          <mxGeometry x="105" y="628" width="130" height="50" as="geometry" />
        </mxCell>
        <mxCell id="95z4vijOnVk0I-HdJjaz-31" style="edgeStyle=orthogonalEdgeStyle;rounded=0;orthogonalLoop=1;jettySize=auto;html=1;entryX=0.5;entryY=0;entryDx=0;entryDy=0;" parent="1" source="95z4vijOnVk0I-HdJjaz-20" target="95z4vijOnVk0I-HdJjaz-30" edge="1">
          <mxGeometry relative="1" as="geometry" />
        </mxCell>
        <mxCell id="95z4vijOnVk0I-HdJjaz-20" value="Цикл 1" style="shape=loopLimit;whiteSpace=wrap;html=1;direction=west;" parent="1" vertex="1">
          <mxGeometry x="105" y="1069" width="130" height="50" as="geometry" />
        </mxCell>
        <mxCell id="95z4vijOnVk0I-HdJjaz-26" style="edgeStyle=orthogonalEdgeStyle;rounded=0;orthogonalLoop=1;jettySize=auto;html=1;" parent="1" source="95z4vijOnVk0I-HdJjaz-23" target="95z4vijOnVk0I-HdJjaz-25" edge="1">
          <mxGeometry relative="1" as="geometry" />
        </mxCell>
        <mxCell id="95z4vijOnVk0I-HdJjaz-29" style="edgeStyle=orthogonalEdgeStyle;rounded=0;orthogonalLoop=1;jettySize=auto;html=1;exitX=1;exitY=0.5;exitDx=0;exitDy=0;" parent="1" source="95z4vijOnVk0I-HdJjaz-23" edge="1">
          <mxGeometry relative="1" as="geometry">
            <mxPoint x="170" y="983" as="targetPoint" />
            <Array as="points">
              <mxPoint x="250" y="873" />
              <mxPoint x="250" y="983" />
            </Array>
          </mxGeometry>
        </mxCell>
        <mxCell id="95z4vijOnVk0I-HdJjaz-23" value="k &amp;lt;&amp;gt; 0" style="rhombus;whiteSpace=wrap;html=1;" parent="1" vertex="1">
          <mxGeometry x="103.75" y="843" width="132.5" height="60" as="geometry" />
        </mxCell>
        <mxCell id="IHezsS5oB59YefZTbnLG-10" style="edgeStyle=orthogonalEdgeStyle;rounded=0;orthogonalLoop=1;jettySize=auto;html=1;" parent="1" source="95z4vijOnVk0I-HdJjaz-25" target="IHezsS5oB59YefZTbnLG-9" edge="1">
          <mxGeometry relative="1" as="geometry" />
        </mxCell>
        <mxCell id="95z4vijOnVk0I-HdJjaz-25" value="s += 1;&lt;div&gt;k := 0&lt;/div&gt;" style="rounded=0;whiteSpace=wrap;html=1;align=center;" parent="1" vertex="1">
          <mxGeometry x="105" y="923" width="130" height="50" as="geometry" />
        </mxCell>
        <mxCell id="95z4vijOnVk0I-HdJjaz-32" style="edgeStyle=orthogonalEdgeStyle;rounded=0;orthogonalLoop=1;jettySize=auto;html=1;" parent="1" source="95z4vijOnVk0I-HdJjaz-30" target="95z4vijOnVk0I-HdJjaz-6" edge="1">
          <mxGeometry relative="1" as="geometry" />
        </mxCell>
        <mxCell id="95z4vijOnVk0I-HdJjaz-30" value="Вывод s" style="shape=parallelogram;perimeter=parallelogramPerimeter;whiteSpace=wrap;html=1;fixedSize=1;" parent="1" vertex="1">
          <mxGeometry x="95" y="1143" width="150" height="50" as="geometry" />
        </mxCell>
        <mxCell id="95z4vijOnVk0I-HdJjaz-33" value="" style="shape=partialRectangle;whiteSpace=wrap;html=1;bottom=1;right=1;left=1;top=0;fillColor=none;routingCenterX=-0.5;rotation=90;" parent="1" vertex="1">
          <mxGeometry x="268.75" y="151.25" width="52.5" height="10" as="geometry" />
        </mxCell>
        <mxCell id="95z4vijOnVk0I-HdJjaz-34" value="n - количество столбцов и строчек в матрице&lt;br&gt;a - заданная матрица" style="text;html=1;align=left;verticalAlign=middle;whiteSpace=wrap;rounded=0;" parent="1" vertex="1">
          <mxGeometry x="301" y="140" width="159" height="30" as="geometry" />
        </mxCell>
        <mxCell id="95z4vijOnVk0I-HdJjaz-35" value="" style="endArrow=none;dashed=1;html=1;rounded=0;entryX=0.5;entryY=1;entryDx=0;entryDy=0;" parent="1" target="95z4vijOnVk0I-HdJjaz-33" edge="1">
          <mxGeometry width="50" height="50" relative="1" as="geometry">
            <mxPoint x="235" y="155" as="sourcePoint" />
            <mxPoint x="550" y="360" as="targetPoint" />
          </mxGeometry>
        </mxCell>
        <mxCell id="95z4vijOnVk0I-HdJjaz-38" value="" style="shape=partialRectangle;whiteSpace=wrap;html=1;bottom=1;right=1;left=1;top=0;fillColor=none;routingCenterX=-0.5;rotation=90;" parent="1" vertex="1">
          <mxGeometry x="280" y="220" width="30" height="10" as="geometry" />
        </mxCell>
        <mxCell id="95z4vijOnVk0I-HdJjaz-39" value="обнуление переменных для счета" style="text;html=1;align=left;verticalAlign=middle;whiteSpace=wrap;rounded=0;" parent="1" vertex="1">
          <mxGeometry x="301" y="210" width="149" height="30" as="geometry" />
        </mxCell>
        <mxCell id="95z4vijOnVk0I-HdJjaz-40" value="" style="endArrow=none;dashed=1;html=1;rounded=0;entryX=0.5;entryY=1;entryDx=0;entryDy=0;" parent="1" target="95z4vijOnVk0I-HdJjaz-38" edge="1">
          <mxGeometry width="50" height="50" relative="1" as="geometry">
            <mxPoint x="235" y="225" as="sourcePoint" />
            <mxPoint x="550" y="430" as="targetPoint" />
          </mxGeometry>
        </mxCell>
        <mxCell id="95z4vijOnVk0I-HdJjaz-41" value="" style="shape=partialRectangle;whiteSpace=wrap;html=1;bottom=1;right=1;left=1;top=0;fillColor=none;routingCenterX=-0.5;rotation=90;" parent="1" vertex="1">
          <mxGeometry x="280" y="290" width="30" height="10" as="geometry" />
        </mxCell>
        <mxCell id="95z4vijOnVk0I-HdJjaz-42" value="переменные для циклов" style="text;html=1;align=left;verticalAlign=middle;whiteSpace=wrap;rounded=0;" parent="1" vertex="1">
          <mxGeometry x="301" y="280" width="140" height="30" as="geometry" />
        </mxCell>
        <mxCell id="95z4vijOnVk0I-HdJjaz-43" value="" style="endArrow=none;dashed=1;html=1;rounded=0;entryX=0.5;entryY=1;entryDx=0;entryDy=0;" parent="1" target="95z4vijOnVk0I-HdJjaz-41" edge="1">
          <mxGeometry width="50" height="50" relative="1" as="geometry">
            <mxPoint x="235" y="295" as="sourcePoint" />
            <mxPoint x="550" y="500" as="targetPoint" />
          </mxGeometry>
        </mxCell>
        <mxCell id="95z4vijOnVk0I-HdJjaz-46" value="" style="shape=partialRectangle;whiteSpace=wrap;html=1;bottom=1;right=1;left=1;top=0;fillColor=none;routingCenterX=-0.5;rotation=90;" parent="1" vertex="1">
          <mxGeometry x="281.25" y="363" width="30" height="10" as="geometry" />
        </mxCell>
        <mxCell id="95z4vijOnVk0I-HdJjaz-47" value="Цикл выполняется, пока i меньше или равно n" style="text;html=1;align=left;verticalAlign=middle;whiteSpace=wrap;rounded=0;" parent="1" vertex="1">
          <mxGeometry x="302.25" y="353" width="140" height="30" as="geometry" />
        </mxCell>
        <mxCell id="95z4vijOnVk0I-HdJjaz-48" value="" style="endArrow=none;dashed=1;html=1;rounded=0;entryX=0.5;entryY=1;entryDx=0;entryDy=0;" parent="1" target="95z4vijOnVk0I-HdJjaz-46" edge="1">
          <mxGeometry width="50" height="50" relative="1" as="geometry">
            <mxPoint x="236.25" y="368" as="sourcePoint" />
            <mxPoint x="551.25" y="573" as="targetPoint" />
          </mxGeometry>
        </mxCell>
        <mxCell id="95z4vijOnVk0I-HdJjaz-49" value="" style="shape=partialRectangle;whiteSpace=wrap;html=1;bottom=1;right=1;left=1;top=0;fillColor=none;routingCenterX=-0.5;rotation=90;" parent="1" vertex="1">
          <mxGeometry x="280" y="498" width="30" height="10" as="geometry" />
        </mxCell>
        <mxCell id="95z4vijOnVk0I-HdJjaz-50" value="Цикл выполняется, пока j меньше или равно n" style="text;html=1;align=left;verticalAlign=middle;whiteSpace=wrap;rounded=0;" parent="1" vertex="1">
          <mxGeometry x="301" y="488" width="140" height="30" as="geometry" />
        </mxCell>
        <mxCell id="95z4vijOnVk0I-HdJjaz-51" value="" style="endArrow=none;dashed=1;html=1;rounded=0;entryX=0.5;entryY=1;entryDx=0;entryDy=0;" parent="1" target="95z4vijOnVk0I-HdJjaz-49" edge="1">
          <mxGeometry width="50" height="50" relative="1" as="geometry">
            <mxPoint x="235" y="503" as="sourcePoint" />
            <mxPoint x="550" y="708" as="targetPoint" />
          </mxGeometry>
        </mxCell>
        <mxCell id="95z4vijOnVk0I-HdJjaz-52" value="" style="shape=partialRectangle;whiteSpace=wrap;html=1;bottom=1;right=1;left=1;top=0;fillColor=none;routingCenterX=-0.5;rotation=90;" parent="1" vertex="1">
          <mxGeometry x="281.25" y="573" width="30" height="10" as="geometry" />
        </mxCell>
        <mxCell id="95z4vijOnVk0I-HdJjaz-53" value="&lt;span style=&quot;text-align: center;&quot;&gt;a[ i, j ] - элемент матрицы&lt;/span&gt;" style="text;html=1;align=left;verticalAlign=middle;whiteSpace=wrap;rounded=0;" parent="1" vertex="1">
          <mxGeometry x="302.25" y="563" width="140" height="30" as="geometry" />
        </mxCell>
        <mxCell id="95z4vijOnVk0I-HdJjaz-54" value="" style="endArrow=none;dashed=1;html=1;rounded=0;entryX=0.5;entryY=1;entryDx=0;entryDy=0;" parent="1" target="95z4vijOnVk0I-HdJjaz-52" edge="1">
          <mxGeometry width="50" height="50" relative="1" as="geometry">
            <mxPoint x="236.25" y="578" as="sourcePoint" />
            <mxPoint x="551.25" y="783" as="targetPoint" />
          </mxGeometry>
        </mxCell>
        <mxCell id="95z4vijOnVk0I-HdJjaz-58" value="" style="shape=partialRectangle;whiteSpace=wrap;html=1;bottom=1;right=1;left=1;top=0;fillColor=none;routingCenterX=-0.5;rotation=90;" parent="1" vertex="1">
          <mxGeometry x="260" y="943" width="70" height="10" as="geometry" />
        </mxCell>
        <mxCell id="95z4vijOnVk0I-HdJjaz-59" value="Если k не равно нулю (значит в строке есть нулевые элементы), мы прибавляем к s единицу, обнуляем k и переходим к следующей строчке" style="text;html=1;align=left;verticalAlign=middle;whiteSpace=wrap;rounded=0;" parent="1" vertex="1">
          <mxGeometry x="301" y="933" width="219" height="30" as="geometry" />
        </mxCell>
        <mxCell id="95z4vijOnVk0I-HdJjaz-60" value="" style="endArrow=none;dashed=1;html=1;rounded=0;entryX=0.5;entryY=1;entryDx=0;entryDy=0;" parent="1" target="95z4vijOnVk0I-HdJjaz-58" edge="1">
          <mxGeometry width="50" height="50" relative="1" as="geometry">
            <mxPoint x="235" y="948" as="sourcePoint" />
            <mxPoint x="550" y="1153" as="targetPoint" />
          </mxGeometry>
        </mxCell>
        <mxCell id="95z4vijOnVk0I-HdJjaz-61" value="" style="shape=partialRectangle;whiteSpace=wrap;html=1;bottom=1;right=1;left=1;top=0;fillColor=none;routingCenterX=-0.5;rotation=90;" parent="1" vertex="1">
          <mxGeometry x="280" y="648" width="30" height="10" as="geometry" />
        </mxCell>
        <mxCell id="95z4vijOnVk0I-HdJjaz-62" value="Если элемент матрицы равен нулю, то к k прибавляем единицу" style="text;html=1;align=left;verticalAlign=middle;whiteSpace=wrap;rounded=0;" parent="1" vertex="1">
          <mxGeometry x="301" y="638" width="189" height="30" as="geometry" />
        </mxCell>
        <mxCell id="95z4vijOnVk0I-HdJjaz-63" value="" style="endArrow=none;dashed=1;html=1;rounded=0;entryX=0.5;entryY=1;entryDx=0;entryDy=0;" parent="1" target="95z4vijOnVk0I-HdJjaz-61" edge="1">
          <mxGeometry width="50" height="50" relative="1" as="geometry">
            <mxPoint x="235" y="653" as="sourcePoint" />
            <mxPoint x="550" y="858" as="targetPoint" />
          </mxGeometry>
        </mxCell>
        <mxCell id="95z4vijOnVk0I-HdJjaz-64" value="" style="shape=partialRectangle;whiteSpace=wrap;html=1;bottom=1;right=1;left=1;top=0;fillColor=none;routingCenterX=-0.5;rotation=90;" parent="1" vertex="1">
          <mxGeometry x="276.25" y="1163" width="30" height="10" as="geometry" />
        </mxCell>
        <mxCell id="95z4vijOnVk0I-HdJjaz-65" value="Вывод результата" style="text;html=1;align=center;verticalAlign=middle;whiteSpace=wrap;rounded=0;" parent="1" vertex="1">
          <mxGeometry x="296.25" y="1153" width="120" height="30" as="geometry" />
        </mxCell>
        <mxCell id="95z4vijOnVk0I-HdJjaz-66" value="" style="endArrow=none;dashed=1;html=1;rounded=0;entryX=0.5;entryY=1;entryDx=0;entryDy=0;" parent="1" target="95z4vijOnVk0I-HdJjaz-64" edge="1">
          <mxGeometry width="50" height="50" relative="1" as="geometry">
            <mxPoint x="236.25" y="1168" as="sourcePoint" />
            <mxPoint x="551.25" y="1383" as="targetPoint" />
          </mxGeometry>
        </mxCell>
        <mxCell id="95z4vijOnVk0I-HdJjaz-67" value="да" style="text;html=1;align=center;verticalAlign=middle;whiteSpace=wrap;rounded=0;" parent="1" vertex="1">
          <mxGeometry x="150" y="603" width="20" height="10" as="geometry" />
        </mxCell>
        <mxCell id="95z4vijOnVk0I-HdJjaz-68" value="да" style="text;html=1;align=center;verticalAlign=middle;whiteSpace=wrap;rounded=0;" parent="1" vertex="1">
          <mxGeometry x="150" y="899" width="20" height="10" as="geometry" />
        </mxCell>
        <mxCell id="95z4vijOnVk0I-HdJjaz-69" value="нет" style="text;html=1;align=center;verticalAlign=middle;whiteSpace=wrap;rounded=0;" parent="1" vertex="1">
          <mxGeometry x="225" y="564" width="20" height="10" as="geometry" />
        </mxCell>
        <mxCell id="95z4vijOnVk0I-HdJjaz-71" value="нет" style="text;html=1;align=center;verticalAlign=middle;whiteSpace=wrap;rounded=0;" parent="1" vertex="1">
          <mxGeometry x="225" y="861" width="20" height="10" as="geometry" />
        </mxCell>
        <mxCell id="LjntRzTPjs0ZNHsIucA5-1" value="ЗАДАЧА №60&lt;div&gt;Подсчитайте количество строк в заданной матрице, таких, что в них есть хотя бы один нулевой&lt;br/&gt;элемент.&amp;nbsp;&lt;br&gt;&lt;/div&gt;" style="text;html=1;align=center;verticalAlign=middle;whiteSpace=wrap;rounded=0;" parent="1" vertex="1">
          <mxGeometry x="240" y="60" width="270" height="30" as="geometry" />
        </mxCell>
        <mxCell id="IHezsS5oB59YefZTbnLG-4" style="edgeStyle=orthogonalEdgeStyle;rounded=0;orthogonalLoop=1;jettySize=auto;html=1;" parent="1" source="IHezsS5oB59YefZTbnLG-1" target="95z4vijOnVk0I-HdJjaz-14" edge="1">
          <mxGeometry relative="1" as="geometry" />
        </mxCell>
        <mxCell id="IHezsS5oB59YefZTbnLG-1" value="&lt;div&gt;j := 1&lt;/div&gt;" style="rounded=0;whiteSpace=wrap;html=1;align=center;" parent="1" vertex="1">
          <mxGeometry x="105" y="410" width="130" height="50" as="geometry" />
        </mxCell>
        <mxCell id="IHezsS5oB59YefZTbnLG-8" style="edgeStyle=orthogonalEdgeStyle;rounded=0;orthogonalLoop=1;jettySize=auto;html=1;" parent="1" source="IHezsS5oB59YefZTbnLG-5" target="95z4vijOnVk0I-HdJjaz-8" edge="1">
          <mxGeometry relative="1" as="geometry" />
        </mxCell>
        <mxCell id="IHezsS5oB59YefZTbnLG-5" value="j += 1" style="rounded=0;whiteSpace=wrap;html=1;align=center;" parent="1" vertex="1">
          <mxGeometry x="105" y="700" width="130" height="50" as="geometry" />
        </mxCell>
        <mxCell id="IHezsS5oB59YefZTbnLG-11" style="edgeStyle=orthogonalEdgeStyle;rounded=0;orthogonalLoop=1;jettySize=auto;html=1;" parent="1" source="IHezsS5oB59YefZTbnLG-9" target="95z4vijOnVk0I-HdJjaz-20" edge="1">
          <mxGeometry relative="1" as="geometry" />
        </mxCell>
        <mxCell id="IHezsS5oB59YefZTbnLG-9" value="i += 1" style="rounded=0;whiteSpace=wrap;html=1;align=center;" parent="1" vertex="1">
          <mxGeometry x="105" y="994" width="130" height="50" as="geometry" />
        </mxCell>
      </root>
    </mxGraphModel>
  </diagram>
</mxfile>
